# xmcd
#
# Track frame offsets: 
#        150
#        17785
#        27770
#        42272
#        59074
#        68842
#        82653
#        102502
#        127179
#        142148
#        166889
#        179827
#
# Disc length: 2584 seconds
#
# Revision: 0
# Processed by: cddbd v1.5.2PL0 Copyright (c) Steve Scherf et al.
# Submitted via: ExactAudioCopy v0.95b3
#
DISCID=ad0a160c
DTITLE=Jonno Zilber - Jonno Zilber
DYEAR=2005
DGENRE=Blues
TTITLE0=Hard Times
TTITLE1=Morapoi
TTITLE2=Katy Why
TTITLE3=Midnight Special
TTITLE4=The Cure
TTITLE5=Caffeine
TTITLE6=I'm Ok
TTITLE7=The Weight
TTITLE8=Memories
TTITLE9=The Fire
TTITLE10=Reso
TTITLE11=Lord's Prayer
EXTD=
EXTT0=
EXTT1=
EXTT2=
EXTT3=
EXTT4=
EXTT5=
EXTT6=
EXTT7=
EXTT8=
EXTT9=
EXTT10=
EXTT11=
PLAYORDER=
